<mxfile host="app.diagrams.net" modified="2024-03-28T18:33:08.111Z" agent="Mozilla/5.0 (Windows NT 10.0; Win64; x64; rv:124.0) Gecko/20100101 Firefox/124.0" version="24.1.0" etag="lCH07cYizwAbUT4PVhn2" type="github">
  <diagram name="Page-1" id="3SDo1wU73yTOF9MJ01jy">
    <mxGraphModel>
      <root>
        <mxCell id="0" />
        <mxCell id="1" parent="0" />
      </root>
    </mxGraphModel>
  </diagram>
</mxfile>
